# xmcd CD database file
#
# Track frame offsets:
#	150
#	20113
#	40573
#	61061
#	76490
#	99311
#	114510
#	137070
#	150423
#
# Disc length: 2262 seconds
#
# Revision: 0
# Processed by: cddbd v1.5.2PL0 Copyright (c) Steve Scherf et al.
# Submitted via: CDex 1.51
#
DISCID=6408d409
DTITLE=Loose Marbles - Washington Square
DYEAR=2006
DGENRE=Jazz
TTITLE0=Til We Meet Again
TTITLE1=Bourbon Street Parade
TTITLE2=Carless Love
TTITLE3=The Balderdash
TTITLE4=The Harvard Blue
TTITLE5=Honeysuckle Rose
TTITLE6=Lily of the Valley
TTITLE7=Tell Me Your Dreams
TTITLE8=Til We Meet Again (Reprise)
EXTD=YEAR: 2006
EXTT0=
EXTT1=
EXTT2=
EXTT3=
EXTT4=
EXTT5=
EXTT6=
EXTT7=
EXTT8=
PLAYORDER=
